<svg width="64" height="64" viewBox="0 0 64 64" fill="none" xmlns="http://www.w3.org/2000/svg">
<path d="M0 0H64V64H0V0Z" fill="white"/>
<path d="M16.095 43.975C16.77 47.17 18.93 48.88 21.72 48.88C24.33 48.88 26.58 47.17 27.255 44.245L31.845 24.22L36.48 44.11C37.2 47.17 39.36 48.88 42.06 48.88C44.985 48.88 46.965 47.035 47.64 43.84L53.04 17.965H46.47L41.88 41.95C41.835 42.085 41.835 42.175 41.79 42.175C41.7 42.175 41.7 42.13 41.655 41.95L37.2 22.735C36.345 19.09 34.545 17.515 31.845 17.515C29.145 17.515 27.3 19.09 26.49 22.78L22.125 41.95C22.08 42.13 22.035 42.175 21.99 42.175C21.945 42.175 21.9 42.13 21.855 41.95L17.085 17.965H10.515L16.095 43.975Z" fill="black"/>
</svg>
